Results
version=1
nRows=12
nColumns=24
inDegrees=yes
endheader
time	pelvis_tilt	pelvis_list	pelvis_rotation	pelvis_tx	pelvis_ty	pelvis_tz	hip_flexion_r	hip_adduction_r	hip_rotation_r	knee_angle_r	ankle_angle_r	subtalar_angle_r	mtp_angle_r	hip_flexion_l	hip_adduction_l	hip_rotation_l	knee_angle_l	ankle_angle_l	subtalar_angle_l	mtp_angle_l	lumbar_extension	lumbar_bending	lumbar_rotation
      1.23216667	     -0.90381492	      7.12641783	     -2.26813737	      0.17351594	      1.00995869	      0.25776324	     17.11831886	    -10.16027651	     -3.62359929	    -68.99311142	    -10.34701873	    -17.44564370	      1.05825038	      8.36567239	     11.73489965	      6.81700448	    -11.01478400	      2.88051366	    -14.54279877	     -1.40275851	    -14.28881691	     -2.06728814	      0.31187081
      1.23633333	     -0.92798702	      6.96193553	     -2.45080180	      0.17848615	      1.01075904	      0.25775326	     17.69533517	     -9.86934153	     -3.48042182	    -68.63539969	     -9.48606234	    -17.42048978	      0.98786291	      7.90742577	     11.55142771	      6.73423195	    -10.66588451	      2.96762967	    -14.51694082	     -1.45131325	    -14.26687267	     -1.81840987	      0.20682169
      1.24050000	     -0.93788284	      6.79968981	     -2.63041157	      0.18346198	      1.01156913	      0.25776900	     18.23390157	     -9.57088752	     -3.34314093	    -68.20067880	     -8.65154215	    -17.49270713	      0.95932913	      7.43462778	     11.37054483	      6.62860639	    -10.31937351	      3.03560684	    -14.50577608	     -1.47937976	    -14.26323979	     -1.58138015	      0.13444312
      1.24466667	     -0.93883145	      6.62874232	     -2.80439407	      0.18843635	      1.01237428	      0.25776257	     18.74205957	     -9.26487114	     -3.20749647	    -67.69833709	     -7.79268512	    -17.33813524	      0.89672603	      6.93741583	     11.18440857	      6.55797225	     -9.94636903	      3.13048446	    -14.44089555	     -1.53727111	    -14.27200988	     -1.31414576	      0.00541339
      1.24883333	     -0.97232877	      6.45167604	     -2.96709725	      0.19341369	      1.01311427	      0.25778223	     19.26046593	     -8.93693080	     -3.08019900	    -67.12163149	     -6.98364120	    -17.40306284	      0.87208185	      6.48756157	     10.99012294	      6.45305832	     -9.60163951	      3.19656610	    -14.42279291	     -1.56876915	    -14.23980882	     -1.06059801	     -0.06404194
      1.25300000	     -0.95477033	      6.27151119	     -3.12761008	      0.19840409	      1.01391622	      0.25778492	     19.69774939	     -8.61377716	     -2.95903942	    -66.47214436	     -6.15185609	    -17.24350597	      0.80006727	      5.96439629	     10.79725672	      6.37109801	     -9.22188071	      3.30122679	    -14.32780466	     -1.64687412	    -14.26365890	     -0.78540860	     -0.21232350
      1.25716667	     -0.99224422	      6.09574426	     -3.28372884	      0.20336313	      1.01459387	      0.25782148	     20.18293174	     -8.27341132	     -2.82422596	    -65.76799636	     -5.37460533	    -17.28753413	      0.77659438	      5.51902740	     10.60609211	      6.26124960	     -8.87601499	      3.35587680	    -14.30257263	     -1.68329250	    -14.23620811	     -0.53143063	     -0.27697445
      1.26133333	     -1.00497104	      5.90170106	     -3.43086351	      0.20833803	      1.01530785	      0.25786960	     20.60628457	     -7.91225424	     -2.69593918	    -64.98061750	     -4.60613069	    -17.19215939	      0.74285223	      5.03898550	     10.39666786	      6.16459861	     -8.52136475	      3.43025954	    -14.23714940	     -1.73462305	    -14.23073409	     -0.27805874	     -0.38038315
      1.26550000	     -1.00725746	      5.72381488	     -3.57180149	      0.21333768	      1.01598489	      0.25788004	     21.00298330	     -7.58047586	     -2.58131146	    -64.14577331	     -3.85145183	    -17.07001696	      0.67782851	      4.53825888	     10.20911172	      6.06896506	     -8.14762332	      3.54078731	    -14.12258887	     -1.82300787	    -14.23555092	      0.00730339	     -0.51894249
      1.26966667	     -1.05252396	      5.54432333	     -3.70918222	      0.21829817	      1.01657061	      0.25793995	     21.42752087	     -7.22234985	     -2.44367093	    -63.24851621	     -3.13786984	    -17.06791477	      0.64859028	      4.10481038	     10.01589125	      5.95043653	     -7.81341841	      3.59532856	    -14.07508249	     -1.87373343	    -14.19880876	      0.24607861	     -0.59549351
      1.27383333	     -1.04829878	      5.36803427	     -3.84083652	      0.22329454	      1.01718897	      0.25796532	     21.77531759	     -6.88560860	     -2.32472769	    -62.29353486	     -2.45747744	    -16.94865234	      0.59139958	      3.59954241	      9.83178019	      5.84623021	     -7.44456649	      3.70098192	    -13.95541539	     -1.96231796	    -14.21085226	      0.51992856	     -0.72409541
      1.27800000	     -1.06667961	      5.18483602	     -3.96537404	      0.22828143	      1.01774891	      0.25801361	     22.12287691	     -6.52965720	     -2.19793208	    -61.27556042	     -1.80944795	    -16.88300159	      0.52965123	      3.13057120	      9.63911545	      5.72620905	     -7.10194226	      3.79075580	    -13.84727907	     -2.06061867	    -14.20342576	      0.77971420	     -0.83749225
